<?xml version="1.0" standalone="no"?>
<!DOCTYPE svg PUBLIC "-//W3C//DTD SVG 20010904//EN"
 "http://www.w3.org/TR/2001/REC-SVG-20010904/DTD/svg10.dtd">
<svg version="1.0" xmlns="http://www.w3.org/2000/svg"
    width="258.000000pt" height="300.000000pt" viewBox="0 0 258.000000 300.000000"
    preserveAspectRatio="xMidYMid meet">
    <metadata>
                Created by potrace 1.10, written by Peter Selinger 2001-2011
            </metadata>
        <g transform="translate(0.000000,300.000000) scale(0.100000,-0.100000)"
        fill="#000000" stroke="none">
        <path d="M1280 2970 c-17 -17 -20 -33 -20 -125 0 -93 2 -107 21 -126 19 -19
        50 -19 71 0 4 3 8 60 9 125 1 105 -1 121 -17 133 -25 18 -41 16 -64 -7z m53
        -125 c0 -53 -3 -98 -6 -102 -3 -3 -13 -3 -22 0 -12 5 -15 25 -15 100 0 59 4
        97 12 105 23 23 32 -7 31 -103z"/>
        <path d="M818 2869 c-30 -17 -20 -59 35 -154 44 -75 58 -91 81 -93 34 -4 56
        13 56 44 0 24 -92 193 -113 206 -16 10 -39 9 -59 -3z m99 -109 c47 -84 46 -80
        34 -99 -8 -12 -12 -12 -24 -2 -27 22 -99 152 -93 167 12 31 41 7 83 -66z"/>
        <path d="M1726 2828 c-40 -64 -93 -155 -99 -171 -15 -39 26 -72 69 -57 23 9
        124 177 124 207 0 46 -68 61 -94 21z m62 -27 c7 -20 -91 -171 -110 -171 -28 0
        -21 27 28 110 44 74 71 94 82 61z"/>
        <path d="M1226 2599 c-76 -8 -76 -9 -186 -62 -141 -69 -244 -188 -296 -343
        -71 -210 -3 -486 178 -732 57 -77 68 -110 68 -205 l0 -83 173 -4 c94 -2 237
        -4 316 -4 l144 -1 -2 75 c-3 96 10 131 94 255 200 294 241 554 125 785 -63
        126 -185 235 -320 288 -46 19 -181 44 -215 40 -5 0 -41 -4 -79 -9z m229 -41
        c28 -6 55 -14 60 -18 6 -4 20 -11 33 -15 49 -15 145 -89 197 -152 96 -117 141
        -257 129 -408 -11 -149 -65 -283 -186 -463 -78 -116 -86 -137 -96 -237 l-7
        -70 -274 1 c-220 1 -275 4 -282 15 -5 8 -9 40 -9 72 0 72 -12 102 -88 214
        -116 173 -166 294 -183 447 -23 196 50 379 200 503 139 114 315 153 506 111z"/>
        <path d="M1220 2535 c-98 -18 -194 -69 -271 -145 -99 -98 -158 -219 -164 -336
        -5 -111 32 -278 81 -359 6 -11 25 -45 42 -76 16 -31 50 -85 75 -120 25 -35 53
        -74 62 -86 9 -13 20 -23 25 -23 13 0 -28 78 -71 135 -54 71 -145 251 -163 323
        -27 101 -28 235 -3 312 48 153 175 280 331 333 88 30 219 29 306 -2 177 -64
        294 -199 336 -388 15 -68 15 -81 0 -167 -24 -146 -85 -280 -192 -428 -47 -63
        -73 -127 -82 -194 l-7 -58 -35 1 -35 0 2 61 c1 60 3 63 52 111 46 45 51 54 51
        93 0 41 3 46 35 61 49 23 75 70 75 135 0 46 3 54 24 62 81 31 49 160 -39 160
        -49 0 -74 -15 -91 -57 -14 -31 -13 -37 3 -66 10 -17 30 -34 43 -37 24 -6 25
        -9 22 -65 -3 -48 -9 -66 -30 -87 -14 -16 -29 -28 -34 -28 -4 0 -8 20 -8 44 0
        49 -24 87 -68 108 -24 12 -27 19 -26 58 1 25 4 55 8 67 9 25 -23 63 -54 63
        -21 0 -60 -36 -60 -57 0 -7 9 -22 20 -33 11 -11 20 -33 20 -50 0 -43 19 -77
        51 -90 47 -20 52 -34 51 -133 -1 -83 -3 -94 -24 -110 -13 -10 -38 -31 -56 -48
        -28 -25 -30 -29 -13 -29 18 0 20 -8 23 -67 3 -60 6 -69 29 -82 35 -20 74 -8
        87 26 6 16 16 54 22 87 9 45 27 80 77 154 243 356 259 645 46 868 -127 135
        -297 192 -473 159z m476 -639 c27 -28 16 -72 -28 -105 -26 -20 -78 22 -78 64
        0 17 5 36 12 43 17 17 76 15 94 -2z m-256 -19 c0 -30 -10 -40 -27 -26 -20 18
        -16 49 7 49 14 0 20 -7 20 -23z"/>
        <path d="M1077 2360 c-14 -11 -28 -33 -32 -49 -8 -35 16 -87 44 -96 17 -5 19
        -16 20 -105 0 -55 5 -108 11 -119 6 -12 26 -23 48 -27 62 -11 62 -12 62 -170
        0 -79 5 -153 11 -166 5 -13 28 -36 50 -51 l39 -28 0 -147 0 -147 -87 2 -88 2
        0 83 0 83 33 14 c32 14 38 31 33 85 0 10 7 25 16 32 14 10 16 17 7 31 -16 27
        -51 29 -59 3 -4 -11 -1 -27 5 -35 10 -12 8 -71 -2 -80 -7 -5 -67 -35 -73 -35
        -3 0 -5 19 -5 43 0 36 -5 45 -30 62 -39 26 -42 79 -5 114 14 13 25 31 25 40 0
        27 -36 54 -72 54 -53 0 -78 -62 -39 -97 10 -9 22 -37 26 -62 5 -33 14 -50 34
        -65 22 -16 30 -32 35 -70 5 -38 11 -49 25 -49 16 0 18 -9 17 -69 -1 -99 12
        -111 119 -111 103 0 115 10 115 97 0 66 7 96 20 88 14 -8 24 85 14 124 -6 25
        -21 43 -50 63 -36 24 -43 34 -49 74 -8 57 4 245 17 261 6 7 26 15 45 19 47 9
        66 41 61 104 -1 27 0 50 4 50 4 0 15 11 24 25 15 23 15 27 1 49 -22 33 -52 38
        -82 14 -32 -25 -32 -51 0 -76 20 -16 25 -28 24 -63 -2 -49 -13 -69 -39 -69 -9
        0 -34 -11 -54 -25 -37 -25 -38 -25 -54 -5 -9 11 -35 26 -57 33 l-40 14 -3 96
        -3 96 36 15 c60 25 72 90 26 137 -36 35 -86 39 -124 9z m103 -30 c33 -33 26
        -62 -23 -94 -28 -17 -29 -17 -50 1 -12 10 -23 18 -24 18 -1 0 -4 12 -8 27 -14
        55 63 90 105 48z m240 -170 c0 -4 -6 -13 -14 -19 -17 -14 -31 2 -22 24 5 15
        36 10 36 -5z m-360 -464 c0 -28 -28 -42 -47 -23 -19 19 -5 47 23 47 19 0 24
        -5 24 -24z"/>
        <path d="M470 2540 c-40 -40 -22 -65 91 -129 66 -38 98 -51 115 -47 24 6 41
        44 31 70 -5 13 -190 126 -208 126 -5 0 -18 -9 -29 -20z m189 -102 c24 -17 21
        -38 -6 -38 -26 0 -153 74 -159 92 -12 38 8 38 75 1 37 -21 77 -46 90 -55z"/>
        <path d="M2001 2460 c-111 -64 -128 -81 -113 -114 21 -46 52 -43 152 15 106
        61 125 84 97 120 -25 33 -50 29 -136 -21z m109 -9 c0 -12 -23 -32 -72 -60 -84
        -49 -113 -55 -113 -26 0 14 22 32 75 62 82 47 110 53 110 24z"/>
        <path d="M338 2088 c-22 -17 -26 -51 -9 -71 11 -14 34 -17 130 -17 124 0 141
        6 141 46 0 41 -35 54 -145 54 -66 0 -107 -4 -117 -12z m220 -40 c3 -14 -8 -17
        -70 -20 -114 -5 -137 2 -129 37 0 3 45 4 98 3 82 -3 98 -6 101 -20z"/>
        <path d="M1980 2021 c-15 -28 -12 -46 8 -64 15 -14 40 -17 128 -17 119 0 134
        6 134 50 0 45 -15 50 -142 50 -106 0 -118 -2 -128 -19z m236 -22 c13 -22 -18
        -32 -105 -33 -93 -1 -107 3 -98 29 5 12 25 15 101 15 58 0 97 -4 102 -11z"/>
        <path d="M527 1672 c-100 -58 -116 -77 -97 -111 23 -45 41 -43 143 15 104 59
        125 81 107 114 -9 16 -40 41 -52 40 -2 0 -47 -26 -101 -58z m123 -1 c0 -22
        -154 -115 -177 -107 -30 12 -6 42 67 83 82 47 110 53 110 24z"/>
        <path d="M1870 1655 c-19 -20 -21 -29 -13 -48 15 -31 195 -131 223 -122 29 9
        42 39 29 67 -10 22 -179 128 -203 128 -7 0 -23 -11 -36 -25z m122 -51 c77 -43
        88 -52 88 -70 0 -23 -37 -16 -98 18 -69 38 -92 57 -92 75 0 22 35 15 102 -23z"/>
        <path d="M1000 1080 c0 -11 7 -20 15 -20 10 0 15 -10 15 -31 0 -24 -4 -30 -15
        -25 -11 4 -15 -1 -15 -19 0 -16 6 -25 15 -25 9 0 15 -9 15 -25 0 -16 -6 -25
        -15 -25 -47 0 28 -93 85 -105 17 -4 42 -18 55 -31 23 -23 30 -24 158 -24 128
        0 134 1 156 24 13 13 37 27 54 30 37 8 66 29 92 70 17 26 18 29 2 38 -21 11
        -22 37 -2 44 18 7 21 55 3 52 -19 -4 -22 41 -4 48 9 3 16 15 16 25 0 18 -13
        19 -315 19 -308 0 -315 0 -315 -20z m568 -53 c12 -44 3 -138 -15 -159 -8 -9
        -25 -19 -38 -22 -14 -4 -41 -17 -61 -31 -34 -23 -46 -25 -143 -25 -86 0 -111
        3 -131 18 -13 9 -47 28 -75 42 l-50 25 0 55 c-1 30 3 72 7 93 l9 37 244 0 244
        0 9 -33z"/>
        <path d="M933 452 c-18 -12 -27 -60 -13 -77 15 -18 61 -20 78 -3 39 39 -18
        110 -65 80z"/>
        <path d="M156 423 c-139 -39 -193 -244 -93 -351 60 -65 177 -83 261 -42 68 33
        74 45 41 80 l-29 30 -22 -21 c-48 -45 -146 -38 -186 13 -62 81 -3 218 94 218
        33 0 87 -25 104 -48 10 -13 16 -10 42 19 16 18 28 37 25 42 -2 4 -23 20 -46
        34 -31 20 -57 27 -107 29 -36 2 -74 0 -84 -3z"/>
        <path d="M474 421 c-2 -2 -4 -96 -4 -208 l0 -203 45 0 45 0 0 80 0 80 85 0 85
        0 0 -80 0 -80 45 0 45 0 0 205 0 205 -45 0 -45 0 0 -85 0 -85 -86 0 -85 0 2
        86 2 87 -42 1 c-24 0 -45 -1 -47 -3z m72 -230 c-23 -25 -36 -19 -36 18 0 38
        10 45 34 22 19 -20 19 -21 2 -40z m224 12 c0 -35 0 -36 -20 -18 -15 13 -17 22
        -9 36 16 30 29 22 29 -18z"/>
        <path d="M1100 218 l0 -208 46 0 45 0 -2 57 -3 57 65 1 c75 2 131 23 154 59
        43 65 22 181 -38 213 -23 12 -66 19 -150 23 l-117 5 0 -207z m209 115 c11 -10
        24 -32 27 -50 5 -26 1 -37 -20 -58 -22 -22 -33 -26 -77 -23 l-51 3 0 68 c1 37
        1 69 1 72 2 14 101 3 120 -12z m-135 -155 c7 -12 6 -21 -3 -32 -21 -25 -31
        -19 -31 20 0 37 14 42 34 12z"/>
        <path d="M1564 416 c-46 -20 -64 -52 -64 -113 0 -72 24 -92 160 -134 34 -11
        46 -20 48 -37 10 -66 -87 -69 -160 -5 -15 13 -20 11 -47 -19 -16 -18 -27 -36
        -23 -40 4 -4 31 -18 59 -33 39 -19 69 -26 112 -26 98 -1 154 43 154 121 0 69
        -35 101 -140 129 -59 16 -84 40 -72 70 9 22 14 23 64 19 31 -3 63 -12 73 -21
        16 -15 19 -14 44 17 32 40 28 45 -45 70 -58 19 -121 20 -163 2z"/>
        <path d="M1890 425 c-1 0 -2 -93 -3 -208 l-2 -207 153 0 152 0 0 38 0 37 -107
        0 -108 0 0 45 0 45 95 1 95 2 0 38 0 37 -95 1 -95 1 -1 48 -1 48 106 -2 106
        -2 3 36 3 36 -150 3 c-83 2 -151 3 -151 3z m80 -210 c0 -7 -9 -20 -20 -30 -20
        -18 -20 -17 -20 30 0 47 0 48 20 30 11 -10 20 -23 20 -30z m-9 -168 c-13 -13
        -31 1 -31 25 0 21 1 21 20 3 13 -12 17 -22 11 -28z"/>
        <path d="M2244 421 c-2 -2 -4 -21 -4 -41 l0 -36 60 4 60 4 0 -171 0 -171 45 0
        45 0 0 171 0 171 60 -4 60 -4 0 37 0 38 -161 3 c-88 2 -163 1 -165 -1z m180
        -70 l-18 -30 -13 26 c-17 34 -18 33 18 33 l30 0 -17 -29z"/>
        <path d="M920 326 c0 0 -2 -72 -3 -159 l-2 -157 43 0 42 0 0 159 0 158 -40 0
        c-22 0 -40 0 -40 -1z"/>
        </g>
</svg>

